<svg id="code" xmlns="http://www.w3.org/2000/svg" width="210.438" height="142.198" viewBox="0 0 210.438 142.198">
  <g id="Group_62" data-name="Group 62">
    <path id="Path_46" data-name="Path 46" d="M238.18,67.143l-6.28-1.76a2.777,2.777,0,0,0-2.38.26,3.355,3.355,0,0,0-1.572,2.02l-37.8,133.7a3.162,3.162,0,0,0,.254,2.537,3.3,3.3,0,0,0,1.976,1.6l6.282,1.762a2.769,2.769,0,0,0,2.382-.259,3.359,3.359,0,0,0,1.571-2.018l37.8-133.7a3.166,3.166,0,0,0-.254-2.538,3.3,3.3,0,0,0-1.979-1.606Z" transform="translate(-110.057 -65.226)" fill="#f9f4f4"/>
    <path id="Path_47" data-name="Path 47" d="M58.977,127.431a3.345,3.345,0,0,0-1.014-2.4L52.9,119.808a3.122,3.122,0,0,0-4.662,0L1.014,168.46a3.35,3.35,0,0,0,0,4.8l47.22,48.651a3.125,3.125,0,0,0,4.662,0l5.067-5.221a3.35,3.35,0,0,0,0-4.8L18.139,170.857l39.824-41.029a3.339,3.339,0,0,0,1.014-2.4Z" transform="translate(0 -99.763)" fill="#f9f4f4"/>
    <path id="Path_48" data-name="Path 48" d="M414.272,168.457l-47.222-48.65a3.122,3.122,0,0,0-4.661,0l-5.065,5.221a3.354,3.354,0,0,0,0,4.8l39.825,41.03-39.825,41.032a3.354,3.354,0,0,0,0,4.8l5.065,5.221a3.124,3.124,0,0,0,4.661,0l47.221-48.65a3.354,3.354,0,0,0,0-4.8Z" transform="translate(-204.846 -99.762)" fill="#f9f4f4"/>
  </g>
</svg>
