<svg id="computer" xmlns="http://www.w3.org/2000/svg" width="164.475" height="136" viewBox="0 0 164.475 136">
  <path id="Path_21" data-name="Path 21" d="M161.865,56H18.611A10.653,10.653,0,0,0,8,66.666v90.669A10.653,10.653,0,0,0,18.611,168H73.293l-3.538,10.666h-8.7a2.66,2.66,0,0,0-2.653,2.667v5.334H34.529a2.667,2.667,0,0,0,0,5.334H151.254a2.667,2.667,0,0,0,0-5.334H122.073v-5.334a2.66,2.66,0,0,0-2.653-2.667h-8.7L107.182,168h54.682a10.653,10.653,0,0,0,10.611-10.666V66.664A10.653,10.653,0,0,0,161.865,56Zm-45.1,128v2.667H63.71V184Zm-41.418-5.334L78.885,168h22.7l3.538,10.666Zm91.822-21.333a5.327,5.327,0,0,1-5.306,5.334H18.611a5.327,5.327,0,0,1-5.306-5.334V152H167.171ZM52.986,122.666l-.995,24H48.9l-.995-24Zm-4.715-5.334,1.77-10.67h.809l1.771,10.666Zm2.175-16c-2.875,0-5.306-3.663-5.306-8,0-2.736,2.779-6.714,5.3-9.516,2.272,2.533,5.312,6.583,5.312,9.516C55.751,97.67,53.321,101.335,50.446,101.335ZM79.316,96l.312.63v2.037H69.016V96.63l.312-.63ZM71.98,90.666l2.341-4.7,2.341,4.7ZM79.627,104v42.333a2.764,2.764,0,0,0,.023.334H68.992a2.767,2.767,0,0,0,.023-.334V104ZM103.5,93.333h7.959v5.334h-2.653a2.667,2.667,0,0,0,0,5.334h2.653v5.334H103.5a2.667,2.667,0,0,0,0,5.334h7.959V120h-2.653a2.667,2.667,0,0,0,0,5.334h2.653v5.334H103.5a2.667,2.667,0,0,0,0,5.334h7.959v10.667H92.891v-64h18.57V88H103.5a2.667,2.667,0,0,0,0,5.334Zm31.834,32v21a2.761,2.761,0,0,0,.023.334H124.7a2.767,2.767,0,0,0,.023-.334v-21ZM124.723,120v-2.037l5.306-10.666,5.306,10.666V120Zm42.448,26.67H140.619a2.758,2.758,0,0,0,.023-.334v-29a2.7,2.7,0,0,0-.279-1.193l-7.959-16a2.65,2.65,0,0,0-4.749,0l-7.955,16a2.705,2.705,0,0,0-.279,1.193v29a2.764,2.764,0,0,0,.023.334h-2.676V80a2.66,2.66,0,0,0-2.653-2.667H90.238A2.66,2.66,0,0,0,87.585,80v66.669H84.909a2.767,2.767,0,0,0,.023-.334V96a2.705,2.705,0,0,0-.279-1.193l-7.953-16a2.65,2.65,0,0,0-4.749,0l-7.963,16A2.705,2.705,0,0,0,63.709,96v50.334a2.768,2.768,0,0,0,.023.334H57.3l1.1-26.556v-.263a2.685,2.685,0,0,0-.033-.28v-.007l-2.453-14.808a14.305,14.305,0,0,0,5.143-11.419c0-6.853-7.9-14.444-8.8-15.286a2.649,2.649,0,0,0-3.615,0c-.9.843-8.8,8.434-8.8,15.286a14.306,14.306,0,0,0,5.135,11.419l-2.454,14.8v.007a2.687,2.687,0,0,0-.033.28v.263l1.1,26.556H13.306v-80a5.327,5.327,0,0,1,5.306-5.334H161.865a5.327,5.327,0,0,1,5.306,5.334Z" transform="translate(-8 -56)" fill="#f9f4f4"/>
  <path id="Path_22" data-name="Path 22" d="M58.57,352H42.653a2.653,2.653,0,1,0,0,5.306H58.57a2.653,2.653,0,0,0,0-5.306Z" transform="translate(-29.389 -253.312)" fill="#f9f4f4"/>
  <path id="Path_23" data-name="Path 23" d="M117.306,352h-2.653a2.653,2.653,0,1,0,0,5.306h2.653a2.653,2.653,0,0,0,0-5.306Z" transform="translate(-77.513 -253.312)" fill="#f9f4f4"/>
  <path id="Path_24" data-name="Path 24" d="M202.653,208A2.653,2.653,0,0,0,200,210.653v29.181a2.653,2.653,0,1,0,5.306,0V210.653A2.653,2.653,0,0,0,202.653,208Z" transform="translate(-136.332 -157.244)" fill="#f9f4f4"/>
  <path id="Path_25" data-name="Path 25" d="M370.653,272A2.653,2.653,0,0,0,368,274.653v7.959a2.653,2.653,0,1,0,5.306,0v-7.959A2.653,2.653,0,0,0,370.653,272Z" transform="translate(-248.622 -199.96)" fill="#f9f4f4"/>
  <path id="Path_26" data-name="Path 26" d="M42.653,93.306H63.876a2.653,2.653,0,1,0,0-5.306H42.653a2.653,2.653,0,0,0,0,5.306Z" transform="translate(-29.389 -77.389)" fill="#f9f4f4"/>
  <path id="Path_27" data-name="Path 27" d="M42.653,117.306h5.306a2.653,2.653,0,0,0,0-5.306H42.653a2.653,2.653,0,1,0,0,5.306Z" transform="translate(-29.389 -93.43)" fill="#f9f4f4"/>
  <path id="Path_28" data-name="Path 28" d="M426.653,301.306h10.611a2.653,2.653,0,0,0,0-5.306H426.653a2.653,2.653,0,1,0,0,5.306Z" transform="translate(-286.052 -215.983)" fill="#f9f4f4"/>
  <path id="Path_29" data-name="Path 29" d="M450.653,277.306h2.653a2.653,2.653,0,0,0,0-5.306h-2.653a2.653,2.653,0,1,0,0,5.306Z" transform="translate(-302.093 -199.985)" fill="#f9f4f4"/>
</svg>
