<svg xmlns="http://www.w3.org/2000/svg" width="33.478" height="27.024" viewBox="0 0 33.478 27.024">
  <g id="right-arrow" transform="translate(0 -41.345)">
    <g id="Group_23" data-name="Group 23" transform="translate(0 41.345)">
      <path id="Path_2" data-name="Path 2" d="M32.943,53.6,20.856,41.864a1.878,1.878,0,0,0-2.592,0l-1.1,1.065a1.739,1.739,0,0,0-.535,1.257,1.772,1.772,0,0,0,.535,1.272l7.058,6.863H1.808a1.817,1.817,0,0,0-1.281.5A1.709,1.709,0,0,0,0,54.065v1.506A1.827,1.827,0,0,0,1.808,57.4H24.3l-7.137,6.9a1.724,1.724,0,0,0,0,2.5l1.1,1.062a1.879,1.879,0,0,0,2.592,0L32.943,56.118A1.755,1.755,0,0,0,32.943,53.6Z" transform="translate(0 -41.345)" fill="#1f1d36"/>
    </g>
  </g>
</svg>
